<?xml version="1.0" encoding="UTF-8" standalone="no"?>
<!-- Created with Inkscape (http://www.inkscape.org/) -->

<svg
   width="500"
   height="500"
   viewBox="0 0 132.29166 132.29166"
   version="1.1"
   id="svg1"
   xmlns="http://www.w3.org/2000/svg"
   xmlns:svg="http://www.w3.org/2000/svg">
  <defs
     id="defs1" />
  <g
     id="layer1">
    <g
       id="g1"
       transform="translate(-1.3510386e-6,1.2314981)">
      <g
         id="g11">
        <rect
           style="fill:#000000;stroke-width:0.288991"
           id="rect10"
           width="5"
           height="54.482021"
           x="5.5240531"
           y="37.328671" />
        <rect
           style="fill:#000000;stroke-width:0.288819"
           id="rect10-5"
           width="5"
           height="54.417271"
           x="121.76762"
           y="37.328671" />
        <rect
           style="fill:#000000;stroke-width:0.264"
           id="rect11"
           width="121.24356"
           height="5"
           x="5.5240531"
           y="87.5" />
        <rect
           style="fill:#000000;stroke-width:0.264"
           id="rect11-2"
           width="121.24356"
           height="5"
           x="5.5240531"
           y="37.328671" />
      </g>
      <g
         id="g9"
         transform="translate(-2.5831563e-4,-1.2314977)">
        <path
           d="m 105.95064,57.679167 c -2.13736,0 -3.97394,0.361166 -5.50923,1.083654 -1.505181,0.722489 -2.663986,1.715825 -3.476786,2.98018 -0.8128,1.234252 -1.219564,2.664578 -1.219564,4.290178 0,1.38477 0.30123,2.498494 0.903304,3.341398 0.632178,0.8128 1.565577,1.504905 2.799829,2.076876 1.264357,0.57197 2.829407,1.189285 4.695837,1.851566 0.72249,0.210726 1.30958,0.406422 1.76113,0.587044 0.48166,0.180623 0.82797,0.360947 1.0387,0.541569 0.21073,0.180623 0.31626,0.406545 0.31626,0.677479 0,0.391348 -0.15062,0.677206 -0.45165,0.857828 -0.30104,0.150519 -0.76774,0.225826 -1.39992,0.225826 -1.11383,0 -2.36332,-0.270487 -3.74809,-0.812353 -1.35467,-0.541867 -2.769102,-1.294942 -4.244184,-2.25826 l -2.935221,5.283398 c 1.38477,1.294459 3.070211,2.287795 5.057055,2.98018 2.01695,0.662281 4.06407,0.993738 6.14123,0.993738 3.04047,0 5.43391,-0.707477 7.17992,-2.122351 1.77612,-1.414874 2.66444,-3.371836 2.66444,-5.870443 0,-1.414874 -0.3166,-2.558824 -0.94878,-3.431832 -0.60208,-0.873007 -1.55033,-1.610711 -2.84479,-2.212785 -1.29446,-0.632177 -2.96504,-1.248975 -5.0121,-1.85105 -0.69238,-0.210725 -1.2641,-0.391567 -1.71565,-0.542085 -0.45156,-0.180623 -0.78302,-0.360947 -0.99374,-0.541569 -0.21073,-0.210726 -0.31574,-0.466875 -0.31574,-0.767912 0,-0.301037 0.0748,-0.541814 0.2253,-0.722437 0.15052,-0.180622 0.36159,-0.315865 0.63252,-0.406176 0.30104,-0.09031 0.64735,-0.135909 1.0387,-0.135909 0.8128,0 1.73083,0.195696 2.75435,0.587044 1.05363,0.391348 2.33283,1.053744 3.83801,1.986959 l 3.25148,-5.237923 c -1.50518,-1.29446 -3.07075,-2.182778 -4.69635,-2.664437 -1.5955,-0.511763 -3.19077,-0.767395 -4.78627,-0.767395 z"
           style="font-weight:900;font-size:45.1556px;line-height:0;font-family:Raleway;-inkscape-font-specification:'Raleway Heavy';letter-spacing:0px;stroke-width:0.264"
           id="path9" />
        <path
           d="m 78.676335,50.725069 v 7.450708 h -2.935222 v 6.457487 h 2.935222 v 10.88254 c 0,1.715911 0.316084,3.085267 0.948262,4.108793 0.662282,0.993422 1.535228,1.716271 2.618962,2.167827 1.083733,0.421451 2.272765,0.632002 3.567224,0.632002 0.873007,0 1.761326,-0.07531 2.664437,-0.225826 0.933215,-0.150518 1.836388,-0.361069 2.709395,-0.632003 0.903111,-0.301037 1.745832,-0.617121 2.528528,-0.948262 l -1.535307,-6.77323 c -0.541867,0.210726 -1.083357,0.39105 -1.625224,0.541569 -0.541866,0.150519 -1.023938,0.225826 -1.44539,0.225826 -0.57197,0 -1.023298,-0.150615 -1.354439,-0.451652 -0.331141,-0.331141 -0.49661,-0.888003 -0.49661,-1.670699 v -7.856885 h 4.650879 v -6.457487 h -4.650879 v -7.450708 z"
           style="font-weight:900;font-size:45.1556px;line-height:0;font-family:Raleway;-inkscape-font-specification:'Raleway Heavy';letter-spacing:0px;stroke-width:0.264"
           id="path8" />
        <path
           d="m 61.517175,57.724125 c -2.829742,0 -5.207815,0.587091 -7.134448,1.761133 -1.926633,1.143938 -3.386674,2.679287 -4.380094,4.60592 -0.993421,1.89653 -1.489832,3.988743 -1.489832,6.27662 0,1.595493 0.28586,3.115987 0.857829,4.560962 0.571969,1.444975 1.399838,2.724174 2.483569,3.838008 1.113835,1.113835 2.483197,2.002157 4.108793,2.664437 1.625597,0.632177 3.477032,0.948263 5.554183,0.948263 1.926634,0 3.657679,-0.271005 5.192965,-0.812871 1.535286,-0.571969 2.860083,-1.339901 3.973918,-2.303218 1.143938,-0.963317 2.031743,-2.077045 2.66392,-3.341398 l -7.269841,-2.076876 c -0.270933,0.752591 -0.827797,1.339165 -1.670699,1.760616 -0.812798,0.421451 -1.685748,0.63252 -2.618961,0.63252 -0.662281,0 -1.309824,-0.12039 -1.942001,-0.361219 -0.602073,-0.240829 -1.113856,-0.617368 -1.535307,-1.12913 -0.391347,-0.541865 -0.616754,-1.233974 -0.676961,-2.076876 H 74.29624 c 0.06021,-0.361243 0.105289,-0.768009 0.135392,-1.219563 0.06021,-0.481659 0.09043,-0.94836 0.09043,-1.399915 0,-2.197566 -0.496411,-4.229326 -1.489831,-6.095752 C 72.03881,62.08936 70.57877,60.584238 68.652136,59.440299 66.725503,58.296361 64.346914,57.724125 61.517171,57.724125 Z"
           style="font-weight:900;font-size:45.1556px;line-height:0;font-family:Raleway;-inkscape-font-specification:'Raleway Heavy';letter-spacing:0px;stroke-width:0.264"
           id="path7" />
        <path
           d="m 16.768486,49.86724 v 32.060576 h 8.805147 V 66.168571 l 12.733589,15.759245 h 6.999573 V 49.86724 H 36.501131 V 66.168571 L 23.631632,49.86724 Z"
           style="font-weight:900;font-size:45.1556px;line-height:0;font-family:Raleway;-inkscape-font-specification:'Raleway Heavy';letter-spacing:0px;stroke-width:0.264"
           id="path6" />
      </g>
    </g>
  </g>
</svg>
